<svg width="272" height="205" viewBox="0 0 272 205" fill="none" xmlns="http://www.w3.org/2000/svg">
<path d="M138.097 0.629448C138.277 0.629065 138.457 0.628683 138.642 0.628288C142.528 0.635075 145.813 1.28139 149.091 3.48315C149.265 3.59698 149.438 3.71082 149.617 3.82811C154.08 6.9635 156.832 11.3246 157.979 16.6603C158.197 18.1504 158.182 19.6525 158.177 21.1554C158.176 21.7283 158.183 22.3009 158.189 22.8738C158.199 24.977 158.015 26.9091 157.449 28.9488C157.26 29.7863 157.22 30.515 157.273 31.3708C157.596 31.8214 157.596 31.8214 158.057 32.1397C159.44 33.399 159.468 35.0521 159.557 36.839C159.513 38.5084 159.045 39.9261 157.905 41.1654C156.748 42.1955 155.858 42.8539 154.273 42.8539C154.232 43.2531 154.232 43.2531 154.191 43.6603C154.012 44.9019 153.591 46.0157 153.131 47.1772C153.046 47.3927 152.961 47.6081 152.874 47.8301C152.229 49.4323 151.549 51.0712 150.455 52.4232C150.275 52.4232 150.095 52.4232 149.909 52.4232C149.887 52.6206 149.864 52.818 149.841 53.0213C149.594 53.9514 149.2 54.4614 148.545 55.1573C148.365 55.1573 148.185 55.1573 148 55.1573C148.18 56.7813 148.36 58.4054 148.545 60.0787C149.175 60.1689 149.805 60.2591 150.455 60.3521C151.247 60.6279 151.247 60.6279 152.014 60.964C152.297 61.0869 152.58 61.2098 152.871 61.3364C153.153 61.4627 153.436 61.589 153.727 61.7191C153.987 61.8345 154.248 61.9499 154.516 62.0687C177.196 72.232 177.196 72.232 181.198 82.6092C184.678 91.8704 187.223 101.686 188.636 111.479C188.692 111.846 188.747 112.212 188.803 112.578C188.89 113.17 188.974 113.763 189.054 114.356C189.138 114.985 189.228 115.614 189.322 116.242C189.712 119.009 189.812 121.726 189.798 124.519C189.795 125.239 189.798 125.959 189.802 126.68C189.804 129.046 189.759 131.314 189.182 133.625C189.346 133.672 189.511 133.718 189.68 133.765C192.732 134.63 195.716 135.776 198.583 137.132C199.108 137.376 199.639 137.607 200.172 137.832C203.402 139.214 206.388 140.945 209.091 143.195C209.275 143.332 209.459 143.47 209.648 143.611C211.477 145.141 212.149 147.572 212.909 149.757C213.029 150.089 213.148 150.421 213.271 150.763C214.009 153.184 214.103 155.535 214.119 158.061C214.122 158.386 214.125 158.711 214.128 159.046C214.097 162.079 213.546 164.64 211.546 166.981C209.851 168.356 207.958 169.426 206.04 170.45C205.78 170.59 205.521 170.73 205.254 170.874C204.443 171.31 203.631 171.743 202.818 172.176C202.446 172.375 202.446 172.375 202.067 172.579C192.003 177.967 181.6 182.673 170.909 186.667C170.545 186.803 170.182 186.94 169.818 187.077C167.636 187.897 167.636 187.897 167.086 188.103C166.567 188.299 166.049 188.498 165.531 188.697C164.02 189.265 162.486 189.764 160.955 190.272C160.501 190.423 160.501 190.423 160.038 190.577C159.298 190.823 158.558 191.069 157.818 191.315C157.787 191.531 157.756 191.748 157.724 191.972C157.268 194.957 156.442 197.399 154.087 199.407C152.411 200.423 150.83 200.755 148.886 200.73C148.665 200.729 148.443 200.727 148.214 200.726C144.769 200.642 141.386 199.763 138.074 198.864C136.128 198.405 135.089 198.425 133.324 199.295C132.964 199.464 132.605 199.633 132.245 199.802C132.06 199.889 131.875 199.976 131.684 200.066C124.599 203.306 113.427 205.795 105.827 203.366C103.433 202.272 102.263 200.238 101.28 197.872C100.577 195.85 100.459 193.814 100.477 191.691C100.475 191.447 100.473 191.204 100.471 190.954C100.475 189.433 100.663 188.126 101.091 186.667C100.856 186.635 100.62 186.604 100.378 186.572C99.4343 186.389 98.6593 186.105 97.7777 185.726C97.461 185.59 97.1442 185.454 96.8178 185.314C96.4807 185.167 96.1438 185.02 95.8069 184.872C95.6347 184.798 95.4626 184.723 95.2852 184.646C92.8459 183.586 90.4358 182.49 88.081 181.251C87.3157 180.853 86.5456 180.464 85.7756 180.075C79.13 176.696 72.3963 172.984 66.7273 168.075C66.5255 167.905 66.3237 167.735 66.1158 167.56C64.0979 165.73 63.5108 163.616 63.1819 160.966C63.12 159.699 63.1082 158.431 63.1014 157.162C63.0982 156.762 63.0927 156.362 63.0846 155.962C63.0267 153.086 63.2322 150.476 64.5455 147.843C64.7255 147.843 64.9055 147.843 65.0909 147.843C65.1416 147.617 65.1922 147.392 65.2444 147.159C65.7755 145.863 66.5882 145.02 67.5455 144.015C67.7955 143.743 67.7955 143.743 68.0505 143.466C72.672 138.604 80.7221 133.91 87.4546 132.805C87.3853 132.547 87.3161 132.288 87.2447 132.021C87.1498 131.656 87.055 131.291 86.9603 130.926C86.8685 130.577 86.7768 130.228 86.6822 129.868C85.7473 125.835 85.4073 121.969 85.4432 117.836C85.4447 117.459 85.4447 117.459 85.4462 117.074C85.4626 113.546 85.5963 110.098 86.2518 106.623C86.3643 106.008 86.4562 105.392 86.5427 104.772C87.4277 98.5916 89.2788 92.1701 91.7927 86.4593C92.0715 85.8234 92.312 85.1833 92.5512 84.5316C94.5587 79.5204 97.2355 75.051 101.636 71.8352C102.007 71.5566 102.007 71.5566 102.384 71.2724C108.189 67.0665 114.82 63.3829 121.545 60.8989C121.89 60.7604 121.89 60.7604 122.242 60.6191C123.177 60.2447 123.793 60.0787 124.818 60.0787C124.802 59.2863 124.778 58.4954 124.75 57.7034C124.746 57.4801 124.742 57.2569 124.738 57.0268C124.681 55.6075 124.517 54.8202 123.455 53.7903C123.218 53.6042 122.982 53.4181 122.739 53.2264C122.085 52.692 121.884 52.354 121.545 51.603C121.417 51.4771 121.288 51.3513 121.155 51.2216C120.71 50.7651 120.47 50.3641 120.189 49.7938C120.096 49.6052 120.003 49.4167 119.906 49.2224C119.812 49.0268 119.717 48.8312 119.619 48.6297C119.524 48.4362 119.428 48.2427 119.329 48.0433C118 45.3384 118 45.3384 118 44.221C117.848 44.2171 117.696 44.2132 117.54 44.2092C115.484 44.0804 114.211 43.3237 112.682 41.9824C112.273 41.4869 112.273 41.4869 112.273 40.9401C112.093 40.9401 111.913 40.9401 111.727 40.9401C110.96 38.7752 110.804 36.4653 111.729 34.3217C112.184 33.498 112.707 32.8661 113.364 32.191C113.544 32.191 113.724 32.191 113.909 32.191C113.856 32.0357 113.802 31.8804 113.747 31.7204C113.146 29.9693 112.565 28.2124 112 26.4494C111.898 26.1322 111.796 25.815 111.691 25.4882C111.177 23.6165 111.093 21.7672 111.063 19.8364C111.056 19.5862 111.05 19.336 111.044 19.0782C111.053 16.634 111.754 14.4523 113.448 12.6519C115.024 11.2178 116.416 10.6461 118.545 10.5918C118.557 10.3662 118.568 10.1406 118.58 9.90824C119.172 7.53188 121.351 5.52985 123.385 4.28575C125.829 2.89774 128.341 1.90441 131.091 1.29588C131.408 1.22435 131.408 1.22435 131.731 1.15137C133.853 0.713763 135.935 0.633145 138.097 0.629448Z" fill="#8A3EFE"/>
<path d="M87.7273 132.805C87.7839 132.958 87.8405 133.111 87.8988 133.269C89.2111 136.693 90.7087 139.646 93.1819 142.375C93.3323 142.551 93.4828 142.727 93.6378 142.909C95.2904 144.729 97.5529 145.933 99.7273 147.022C100.067 151.11 100 155.224 100 159.326C124.21 159.326 148.42 159.326 173.364 159.326C173.364 158.063 173.364 156.8 173.364 155.498C173.409 154.107 173.485 152.718 173.567 151.328C173.603 150.707 173.635 150.085 173.667 149.464C173.69 149.063 173.713 148.662 173.737 148.261C173.767 147.727 173.767 147.727 173.797 147.181C173.908 146.21 174.035 145.445 174.455 144.562C175.061 144.18 175.061 144.18 175.815 143.931C176.091 143.835 176.366 143.739 176.65 143.64C176.944 143.544 177.237 143.448 177.54 143.349C178.139 143.138 178.738 142.925 179.336 142.711C179.768 142.556 179.768 142.556 180.209 142.398C181.75 141.819 183.155 141.07 184.545 140.187C184.779 140.043 185.013 139.898 185.254 139.749C187.429 138.253 188.178 136.092 188.909 133.625C192.313 134.275 195.415 135.672 198.545 137.122C199.085 137.368 199.63 137.603 200.176 137.833C203.404 139.216 206.389 140.945 209.091 143.195C209.275 143.332 209.459 143.47 209.648 143.611C211.477 145.141 212.149 147.572 212.909 149.757C213.029 150.089 213.148 150.421 213.271 150.763C214.009 153.184 214.103 155.535 214.119 158.061C214.122 158.386 214.125 158.711 214.128 159.046C214.097 162.079 213.546 164.64 211.546 166.981C209.851 168.356 207.958 169.426 206.04 170.45C205.78 170.59 205.521 170.73 205.254 170.874C204.443 171.31 203.631 171.743 202.818 172.176C202.446 172.375 202.446 172.375 202.067 172.579C192.003 177.967 181.6 182.673 170.909 186.667C170.545 186.803 170.182 186.94 169.818 187.077C167.636 187.897 167.636 187.897 167.086 188.103C166.567 188.299 166.049 188.498 165.531 188.697C164.02 189.265 162.486 189.764 160.955 190.272C160.652 190.373 160.35 190.473 160.038 190.577C159.298 190.823 158.558 191.069 157.818 191.315C157.787 191.531 157.756 191.748 157.724 191.972C157.268 194.957 156.442 197.399 154.087 199.407C152.411 200.423 150.83 200.755 148.886 200.73C148.665 200.729 148.443 200.727 148.214 200.726C144.769 200.642 141.386 199.763 138.074 198.864C136.128 198.405 135.089 198.425 133.324 199.295C132.964 199.464 132.605 199.633 132.245 199.802C132.06 199.889 131.875 199.976 131.684 200.066C124.599 203.306 113.427 205.795 105.827 203.366C103.433 202.272 102.263 200.238 101.28 197.872C100.577 195.85 100.459 193.814 100.477 191.691C100.475 191.447 100.473 191.204 100.471 190.954C100.475 189.433 100.663 188.126 101.091 186.667C100.856 186.635 100.62 186.604 100.378 186.572C99.4343 186.389 98.6593 186.105 97.7777 185.726C97.3026 185.522 97.3026 185.522 96.8178 185.314C96.4807 185.167 96.1438 185.02 95.8069 184.872C95.6347 184.798 95.4626 184.723 95.2852 184.646C92.8459 183.586 90.4358 182.49 88.081 181.251C87.3157 180.853 86.5456 180.464 85.7756 180.075C79.13 176.696 72.3963 172.984 66.7273 168.075C66.5255 167.905 66.3237 167.735 66.1158 167.56C64.0979 165.73 63.5108 163.616 63.1819 160.966C63.12 159.699 63.1082 158.431 63.1014 157.162C63.0982 156.762 63.0927 156.362 63.0846 155.962C63.0267 153.086 63.2322 150.476 64.5455 147.843L65 147.5L65.2444 147.159C65.7755 145.863 66.5882 145.02 67.5455 144.015C67.7121 143.834 67.8788 143.653 68.0505 143.466C72.1149 139.19 81.4403 132.805 87.7273 132.805Z" fill="#3E4464"/>
<path d="M209.335 22.5468C209.582 22.5453 209.83 22.5439 210.085 22.5424C210.917 22.5383 211.749 22.5381 212.581 22.538C213.177 22.5359 213.773 22.5336 214.369 22.5311C215.989 22.5251 217.609 22.5227 219.229 22.5213C220.241 22.5203 221.253 22.5186 222.265 22.5166C225.613 22.5103 228.961 22.5064 232.309 22.5055C232.49 22.5055 232.67 22.5054 232.856 22.5054C233.127 22.5053 233.127 22.5053 233.404 22.5052C236.148 22.5043 238.893 22.4981 241.638 22.4886C244.827 22.4775 248.016 22.4711 251.204 22.4709C252.892 22.4706 254.579 22.4682 256.267 22.4605C257.854 22.4533 259.442 22.4527 261.029 22.4571C261.612 22.4576 262.194 22.4558 262.776 22.4514C263.572 22.4458 264.368 22.4487 265.163 22.4537C265.393 22.45 265.623 22.4464 265.859 22.4427C267.522 22.4663 268.611 22.9513 269.909 23.9888C271.356 25.5159 271.627 26.9073 271.622 28.9655C271.624 29.1903 271.625 29.4151 271.627 29.6466C271.632 30.3993 271.633 31.1518 271.633 31.9045C271.636 32.4443 271.639 32.9842 271.642 33.5241C271.649 34.9906 271.652 36.4571 271.655 37.9237C271.656 38.8403 271.659 39.757 271.661 40.6737C271.668 43.5431 271.674 46.4126 271.676 49.282C271.678 52.5919 271.688 55.9016 271.704 59.2114C271.715 61.7714 271.721 64.3314 271.722 66.8914C271.722 68.4196 271.725 69.9477 271.735 71.4759C271.744 72.9142 271.745 74.3524 271.741 75.7907C271.74 76.3173 271.743 76.8439 271.748 77.3705C271.799 82.6136 271.799 82.6136 269.909 84.6854C268.434 86.0011 266.981 86.0928 265.081 86.0908C264.835 86.0916 264.59 86.0925 264.337 86.0933C263.511 86.0957 262.685 86.0961 261.859 86.0965C261.268 86.0978 260.678 86.0991 260.087 86.1006C258.479 86.1042 256.871 86.106 255.264 86.1072C254.26 86.108 253.256 86.1091 252.252 86.1103C249.111 86.1141 245.971 86.1167 242.831 86.1177C239.204 86.119 235.577 86.1238 231.95 86.1317C229.148 86.1376 226.346 86.1404 223.544 86.1407C221.869 86.141 220.195 86.1426 218.521 86.1475C216.946 86.152 215.371 86.1526 213.796 86.1502C213.218 86.15 212.64 86.1512 212.062 86.1539C211.273 86.1574 210.484 86.1558 209.694 86.1529C209.466 86.1551 209.237 86.1573 209.002 86.1596C207.368 86.1458 205.979 85.9057 204.748 84.7313C204.623 84.5526 204.498 84.3739 204.369 84.1898C204.177 83.925 204.177 83.925 203.981 83.6548C203.154 82.1895 203.011 80.801 203.018 79.146C203.017 78.9229 203.016 78.6997 203.014 78.4698C203.011 77.7243 203.011 76.9789 203.012 76.2334C203.01 75.6979 203.008 75.1625 203.006 74.6271C203.001 73.1742 203 71.7213 203 70.2684C202.999 69.3603 202.998 68.4523 202.997 67.5443C202.992 64.3757 202.989 61.207 202.99 58.0384C202.99 55.086 202.984 52.1337 202.976 49.1813C202.969 46.6452 202.966 44.1092 202.966 41.5731C202.966 40.059 202.965 38.5449 202.959 37.0308C202.954 35.6066 202.954 34.1826 202.958 32.7584C202.958 32.2365 202.957 31.7145 202.954 31.1925C202.949 30.4785 202.952 29.7648 202.956 29.0508C202.953 28.8455 202.951 28.6402 202.948 28.4287C202.969 26.7852 203.432 25.332 204.577 24.1165C206.145 22.7575 207.296 22.541 209.335 22.5468Z" fill="#896CFE"/>
<path d="M128.19 107.049C128.774 107.047 129.358 107.046 129.942 107.044C131.808 107.038 133.674 107.037 135.54 107.037C135.857 107.036 136.174 107.036 136.5 107.036C144.368 107.032 152.227 107.054 160.085 107.464C160.402 107.48 160.719 107.496 161.045 107.512C164.398 107.689 167.735 107.969 171.074 108.33C171.38 108.363 171.686 108.395 172.002 108.429C173.589 108.61 175.097 108.859 176.636 109.292C176.201 118.255 175.619 127.204 174.936 136.151C174.906 136.545 174.876 136.939 174.846 137.332C174.715 139.053 174.583 140.773 174.448 142.494C174.012 148.103 173.684 153.706 173.364 159.326C149.154 159.326 124.944 159.326 100 159.326C99.91 156.348 99.82 153.371 99.7273 150.303C99.5876 148.241 99.4459 146.183 99.2716 144.124C99.1437 142.61 99.0236 141.096 98.9038 139.582C98.8682 139.133 98.8682 139.133 98.8318 138.676C98.62 135.963 98.4635 133.25 98.3295 130.533C98.191 127.73 98.0199 124.939 97.7511 122.146C97.358 117.873 97.2078 113.577 97 109.292C101.27 108.564 105.533 108.191 109.852 107.891C110.495 107.844 111.139 107.798 111.782 107.751C113.581 107.621 115.381 107.494 117.182 107.378C117.446 107.36 117.446 107.36 117.715 107.342C121.207 107.109 124.69 107.056 128.19 107.049Z" fill="#CDD1D3"/>
<path d="M138.097 0.629448C138.277 0.629065 138.457 0.628683 138.642 0.628288C142.528 0.635075 145.813 1.28139 149.091 3.48315C149.265 3.59698 149.438 3.71082 149.617 3.82811C154.08 6.9635 156.832 11.3246 157.979 16.6603C158.196 18.1504 158.182 19.6525 158.177 21.1554C158.176 21.7283 158.183 22.3009 158.189 22.8738C158.199 24.977 158.015 26.9091 157.449 28.9488C157.26 29.7863 157.22 30.515 157.273 31.3708C157.596 31.8214 157.596 31.8214 158.057 32.1397C159.44 33.399 159.468 35.0521 159.557 36.839C159.513 38.5084 159.045 39.9261 157.904 41.1654C156.748 42.1955 155.858 42.8539 154.273 42.8539C154.246 43.12 154.219 43.3861 154.191 43.6603C154.012 44.9019 153.591 46.0157 153.131 47.1772C153.045 47.5019 152.961 47.6081 152.874 47.8301C152.364 49.6891 150.864 52.0131 150.864 52.0131L150.182 53.0213L149.909 53.3801C149.909 53.3801 149.2 54.4614 148.545 55.1573C148.375 55.3385 148.322 55.294 148.136 55.294C148.26 56.1543 148.249 56.8776 148.375 57.7376C148.409 57.9778 148.444 58.218 148.479 58.4654C148.709 60.025 149.005 61.551 149.364 63.0861C147.837 64.33 146.288 65.2176 144.455 65.9057C144.28 65.9718 144.106 66.0379 143.926 66.106C138.754 67.9603 132.204 67.9262 127.151 65.675C126.148 65.1394 125.218 64.5378 124.273 63.9064C124.316 63.6701 124.36 63.4338 124.405 63.1903C124.632 61.695 124.618 60.2047 124.631 58.6945C124.639 58.3743 124.647 58.0541 124.655 57.7242C124.658 57.2609 124.658 57.2609 124.662 56.7881C124.666 56.5079 124.67 56.2277 124.674 55.939C124.464 54.6612 123.726 54.0041 122.739 53.2264C122.085 52.692 121.884 52.354 121.545 51.603C121.417 51.4771 121.288 51.3513 121.155 51.2216C120.71 50.7651 120.469 50.3641 120.189 49.7938C120.096 49.6052 120.003 49.4167 119.906 49.2224C119.764 48.929 119.764 48.929 119.619 48.6297C119.524 48.4362 119.428 48.2427 119.329 48.0433C118 45.3384 118 45.3384 118 44.221C117.848 44.2171 117.696 44.2132 117.54 44.2092C115.484 44.0804 114.211 43.3237 112.682 41.9824C112.273 41.6236 112 41.3502 112 41.3502C112 41.3502 111.864 41.2135 111.727 40.9401C110.959 38.7752 110.804 36.4653 111.729 34.3217C112.184 33.498 112.707 32.8661 113.364 32.191C113.544 32.191 113.724 32.191 113.909 32.191C113.856 32.0357 113.802 31.8804 113.747 31.7204C113.146 29.9693 112.565 28.2124 112 26.4494C111.898 26.1322 111.796 25.815 111.691 25.4882C111.177 23.6165 111.093 21.7672 111.063 19.8364C111.056 19.5862 111.05 19.336 111.044 19.0782C111.053 16.634 111.754 14.4523 113.448 12.6519C115.024 11.2178 116.416 10.6461 118.545 10.5918C118.557 10.3662 118.568 10.1406 118.58 9.90824C119.172 7.53188 121.351 5.52985 123.385 4.28575C125.829 2.89774 128.341 1.90441 131.091 1.29588C131.302 1.24819 131.514 1.2005 131.731 1.15137C133.853 0.713763 135.935 0.633145 138.097 0.629448Z" fill="#FEAF9B"/>
<path d="M31.0001 60.3521C31.0001 61.9761 31.0001 63.6002 31.0001 65.2734C31.5401 65.4539 32.0801 65.6343 32.6364 65.8202C32.912 66.0176 33.1877 66.215 33.4716 66.4183C34.2082 66.9831 34.2082 66.9831 34.9184 66.8626C35.9797 66.5343 36.7974 65.9193 37.7085 65.2958C38.3637 65 38.3637 65 38.923 65.1634C42.5835 67.8035 45.242 72.3865 46.0682 76.7907C46.1357 77.2306 46.2032 77.6704 46.2728 78.1236C45.0128 78.8454 43.7528 79.5672 42.4546 80.3109C42.1678 82.5149 42.1678 82.5149 42.4546 84.6854C43.4246 85.6391 44.4731 86.1068 45.7273 86.5993C46.0001 86.8727 46.0001 86.8727 46.0778 87.6875C46.0565 89.0186 45.5554 90.1287 45.0285 91.3326C44.9291 91.5629 44.8298 91.7932 44.7274 92.0305C43.9663 93.7468 43.1152 95.2696 41.9091 96.7154C41.6038 97.0918 41.6038 97.0918 41.2923 97.4758C39.7016 99.3525 39.7016 99.3525 38.7824 99.7132C37.8691 99.7259 37.4837 99.4272 36.7444 98.9026C35.7084 98.2317 35.7084 98.2317 34.5114 98.0311C33.6058 98.4061 32.8261 98.8796 32.0185 99.4334C31.5455 99.7228 31.5455 99.7228 31.0001 99.7228C31.0001 101.347 31.0001 102.971 31.0001 104.644C26.2012 105.876 21.6429 106.335 16.8182 104.918C16.5482 104.737 16.2782 104.557 16.0001 104.371C15.9398 103.564 15.9235 102.817 15.9489 102.013C15.9545 101.684 15.9545 101.684 15.9601 101.348C15.9698 100.806 15.9844 100.265 16.0001 99.7228C15.6209 99.606 15.6209 99.606 15.2341 99.4868C14.3637 99.176 14.3637 99.176 13.5285 98.578C12.7919 98.0132 12.7919 98.0132 12.0817 98.1337C11.0204 98.462 10.2027 99.0769 9.2916 99.7004C8.63642 99.9963 8.63642 99.9963 8.0867 99.851C4.58633 97.2537 2.03914 92.6955 1.00006 88.5131C0.895652 87.6384 0.895652 87.6384 1.00006 86.8727C1.48905 86.3728 1.48905 86.3728 2.1421 85.9841C2.35409 85.853 2.56609 85.7219 2.7845 85.5868C3.44893 85.2352 4.11556 84.9507 4.81824 84.6854C4.99344 82.4659 4.99344 82.4659 4.54551 80.3109C3.62843 79.5043 2.88338 79.1187 1.76604 78.6352C1.51326 78.4664 1.26049 78.2975 1.00006 78.1236C0.50674 75.0516 2.78389 71.3424 4.52207 68.9206C5.61743 67.5152 6.79743 66.2238 8.09096 65C9.2578 65.4151 10.2638 66.0132 11.3136 66.6607C12.0382 66.9687 12.2778 66.9301 13.0001 66.6405C13.4264 66.418 13.8469 66.1838 14.2614 65.9398C15.3951 65.2734 15.3951 65.2734 16.0001 65.2734C16.0001 63.6494 16.0001 62.0253 16.0001 60.3521C21.0992 58.7941 25.9009 58.7941 31.0001 60.3521Z" fill="#3F4565"/>
<path d="M166.818 68.2809C173.631 71.3686 178.465 75.5235 181.198 82.6092C184.678 91.8704 187.223 101.686 188.636 111.479C188.692 111.846 188.747 112.212 188.803 112.578C188.89 113.17 188.974 113.763 189.054 114.356C189.139 114.986 189.228 115.615 189.321 116.244C189.707 118.994 189.82 121.698 189.813 124.474C189.813 125.185 189.819 125.896 189.826 126.608C189.836 129.336 189.64 131.801 188.909 134.446C188.856 134.643 188.804 134.84 188.749 135.043C188.114 137.226 187.263 138.672 185.364 139.914C184.969 140.173 184.969 140.173 184.566 140.437C181.363 142.391 177.804 143.868 174.182 144.835C174.282 141.092 174.512 137.371 174.847 133.643C175.129 130.483 175.378 127.325 175.563 124.159C175.573 123.976 175.584 123.794 175.595 123.606C175.659 122.493 175.723 121.38 175.785 120.266C175.879 118.609 175.975 116.952 176.073 115.295C176.107 114.706 176.14 114.117 176.174 113.528C176.194 113.172 176.215 112.816 176.237 112.449C176.255 112.136 176.273 111.822 176.291 111.499C176.356 110.744 176.47 110.031 176.636 109.292C176.29 109.259 175.944 109.226 175.587 109.192C173.414 108.981 171.247 108.766 169.085 108.455C166.881 108.146 164.676 108.029 162.455 107.925C162.455 107.835 162.455 107.745 162.455 107.652C163.355 107.652 164.255 107.652 165.182 107.652C165.053 105.718 164.77 103.926 164.315 102.045C163.947 100.474 163.655 98.8918 163.379 97.3032C163.274 96.7225 163.157 96.1453 163.039 95.5673C162.451 92.466 162.381 89.4038 162.386 86.2575C162.387 86.05 162.387 85.8426 162.387 85.6289C162.411 77.4337 162.411 77.4337 163.511 74.125C163.581 73.8977 163.651 73.6704 163.723 73.4361C164.331 71.5098 164.88 70.058 166.545 68.8277C166.635 68.6473 166.725 68.4668 166.818 68.2809Z" fill="#896BFE"/>
<path d="M106.546 68.5543C106.681 68.825 106.681 68.825 106.818 69.1011C107.181 69.2843 107.545 69.4665 107.909 69.6479C110.833 72.1517 111.598 76.6662 112 80.3109C112.506 87.3186 111.191 94.0475 109.847 100.887C109.372 103.328 108.988 105.705 109 108.199C107.817 108.311 106.634 108.422 105.451 108.534C105.05 108.572 104.649 108.61 104.248 108.648C101.833 108.876 99.4181 109.097 97.0001 109.292C97.041 109.502 97.082 109.711 97.1242 109.927C97.3194 111.248 97.3925 112.564 97.4688 113.896C97.486 114.181 97.5031 114.465 97.5207 114.758C97.5753 115.665 97.6287 116.571 97.6819 117.477C97.752 118.67 97.8232 119.863 97.895 121.056C97.9106 121.328 97.9262 121.6 97.9424 121.881C97.9578 122.138 97.9733 122.395 97.9893 122.66C98.0024 122.884 98.0155 123.108 98.029 123.339C98.0766 123.89 98.1464 124.439 98.2255 124.986C98.3575 125.925 98.437 126.85 98.4948 127.796C98.5276 128.323 98.5276 128.323 98.561 128.861C98.5837 129.24 98.6064 129.619 98.629 129.999C98.653 130.393 98.6771 130.788 98.7012 131.182C98.7514 132.008 98.8011 132.833 98.8504 133.659C98.9131 134.709 98.9774 135.759 99.0421 136.809C99.0921 137.624 99.1412 138.439 99.1902 139.254C99.2135 139.64 99.2371 140.027 99.2609 140.414C99.3967 142.62 99.4895 144.812 99.4546 147.022C93.8746 144.672 90.2925 139.945 88.0488 134.443C86.0002 129.13 85.3941 123.485 85.4433 117.836C85.4443 117.585 85.4453 117.333 85.4463 117.074C85.4627 113.546 85.5964 110.098 86.2519 106.623C86.3644 106.008 86.4562 105.392 86.5427 104.772C87.4278 98.5916 89.2788 92.1701 91.7927 86.4594C92.0715 85.8234 92.312 85.1833 92.5512 84.5316C95.4421 77.3155 99.8757 72.4774 106.546 68.5543Z" fill="#896BFE"/>
<path d="M138.097 0.629448C138.277 0.629065 138.457 0.628683 138.642 0.628288C142.528 0.635075 145.813 1.28139 149.091 3.48315C149.265 3.59698 149.438 3.71082 149.617 3.82811C153.561 6.59918 156.234 10.3121 157.545 14.9663C157.593 15.127 157.641 15.2876 157.69 15.4532C158.227 17.4943 158.198 19.569 158.193 21.6648C158.193 21.8589 158.193 22.0529 158.194 22.2528C158.187 25.913 157.869 29.155 156.182 32.4644C155.981 33.0227 155.981 33.0227 155.858 33.5239C155.785 33.8058 155.712 34.0878 155.636 34.3783C154.058 34.1367 153.276 32.8584 152.364 31.6442C149.091 26.6385 149.091 26.6385 149.091 24.809C148.945 24.8485 148.8 24.8879 148.65 24.9286C144.661 25.9249 140.781 24.9687 136.902 23.8905C132.708 22.7283 129.559 22.4705 125.364 23.9888C125.12 24.0593 124.877 24.1297 124.626 24.2024C123.859 24.498 123.458 24.7348 122.909 25.3558C122.557 26.2822 122.294 27.1863 122.057 28.1462C121.288 31.2055 119.609 34.2324 117.182 36.2921C116.572 36.4919 116.572 36.4919 116.091 36.5655C115.907 36.0024 115.725 35.4383 115.545 34.8738C115.444 34.5598 115.343 34.2458 115.239 33.9222C115.026 33.1088 114.95 32.4773 115 31.6442C114.64 31.6442 114.28 31.6442 113.909 31.6442C112.39 27.6917 111.13 24.1145 111.063 19.8364C111.056 19.5862 111.05 19.336 111.044 19.0783C111.053 16.634 111.754 14.4524 113.448 12.6519C115.024 11.2178 116.416 10.6461 118.545 10.5918C118.557 10.3662 118.568 10.1406 118.58 9.90824C119.172 7.53188 121.351 5.52985 123.385 4.28575C125.829 2.89774 128.341 1.90441 131.091 1.29588C131.302 1.24819 131.514 1.2005 131.731 1.15137C133.853 0.713763 135.935 0.633145 138.097 0.629448Z" fill="#2A3053"/>
<path d="M50.5922 10.5515C50.9896 10.5486 50.9896 10.5486 51.395 10.5456C51.6839 10.5449 51.9728 10.5441 52.2705 10.5434C52.729 10.5407 52.729 10.5407 53.1967 10.5379C54.2087 10.5325 55.2207 10.5293 56.2327 10.5266C56.7512 10.5249 56.7512 10.5249 57.2801 10.5232C58.9205 10.5181 60.5609 10.5141 62.2013 10.5119C64.0917 10.5092 65.9821 10.502 67.8725 10.4909C69.5125 10.4817 71.1524 10.4785 72.7924 10.4774C73.4889 10.476 74.1853 10.4728 74.8818 10.4678C75.8565 10.4611 76.8309 10.4614 77.8056 10.4633C78.0929 10.4598 78.3801 10.4563 78.6761 10.4527C80.6115 10.4664 81.8225 10.7716 83.2838 12.1126C84.2233 13.3373 84.7912 14.1797 84.8109 15.7387C84.8153 15.9998 84.8196 16.2609 84.8241 16.5299C84.8256 16.8104 84.8271 17.0909 84.8286 17.38C84.831 17.6706 84.8335 17.9612 84.836 18.2607C84.84 18.8756 84.8424 19.4906 84.8434 20.1056C84.8467 21.0424 84.8601 21.9787 84.8738 22.9154C84.8764 23.5139 84.8784 24.1123 84.8797 24.7107C84.885 24.9891 84.8904 25.2674 84.8958 25.5541C84.883 27.6085 84.3832 28.926 82.9702 30.4197C81.2327 31.9971 79.4056 31.9982 77.1903 31.9927C76.9014 31.9941 76.6125 31.9955 76.3148 31.9969C75.3615 32.0007 74.4083 32.0005 73.455 31.9998C72.7906 32.0009 72.1262 32.0021 71.4618 32.0034C70.0695 32.0054 68.6773 32.0054 67.285 32.0039C65.5041 32.0023 63.7233 32.007 61.9424 32.0133C60.5701 32.0173 59.1979 32.0176 57.8256 32.0167C57.1692 32.0169 56.5128 32.0183 55.8564 32.021C54.9367 32.0244 54.0172 32.0226 53.0976 32.0194C52.8285 32.0215 52.5593 32.0236 52.2821 32.0257C50.4283 32.0117 48.5452 31.8356 47.058 30.6275C46.9395 30.4667 46.821 30.306 46.699 30.1404C46.5756 29.9797 46.4522 29.819 46.325 29.6534C45.645 28.67 45.3846 28.167 45.3667 26.9747C45.3615 26.6917 45.3563 26.4087 45.3509 26.1171C45.3485 25.8113 45.3462 25.5054 45.3438 25.1903C45.3407 24.875 45.3376 24.5597 45.3344 24.2349C45.3293 23.5667 45.3257 22.8986 45.3236 22.2305C45.3183 21.212 45.3014 20.1942 45.2842 19.1758C45.2806 18.5263 45.2778 17.8768 45.2757 17.2273C45.2689 16.9241 45.2622 16.621 45.2552 16.3088C45.2653 14.5495 45.4884 13.4835 46.6328 12.126C47.8989 10.9084 48.8498 10.5604 50.5922 10.5515Z" fill="#8A6CFE"/>
<path d="M209.335 22.5468C209.582 22.5453 209.83 22.5439 210.085 22.5424C210.917 22.5383 211.749 22.5381 212.581 22.538C213.177 22.5359 213.773 22.5336 214.369 22.5311C215.989 22.5251 217.609 22.5227 219.229 22.5213C220.241 22.5203 221.253 22.5186 222.265 22.5166C225.613 22.5103 228.961 22.5064 232.309 22.5055C232.489 22.5055 232.67 22.5054 232.856 22.5054C233.127 22.5053 233.127 22.5053 233.403 22.5052C236.148 22.5043 238.893 22.4981 241.638 22.4886C244.827 22.4775 248.016 22.4711 251.204 22.4709C252.892 22.4706 254.579 22.4682 256.267 22.4605C257.854 22.4533 259.442 22.4527 261.029 22.4571C261.612 22.4576 262.194 22.4558 262.776 22.4514C263.572 22.4458 264.367 22.4487 265.163 22.4537C265.393 22.45 265.622 22.4464 265.859 22.4427C267.522 22.4663 268.611 22.9513 269.909 23.9888C272.66 26.8916 271.545 29.8138 271.545 34.1049C248.955 34.1049 226.365 34.1049 203.091 34.1049C203.091 26.7228 203.091 26.7228 204.182 24.5356C205.885 22.899 207.009 22.5402 209.335 22.5468Z" fill="#2A3054"/>
<path d="M214 155.772C214.09 155.772 214.18 155.772 214.273 155.772C214.283 156.105 214.293 156.438 214.304 156.781C214.322 157.225 214.34 157.669 214.358 158.113C214.364 158.331 214.37 158.55 214.377 158.775C214.425 159.845 214.51 160.733 214.959 161.713C215.799 163.567 215.554 165.553 214.904 167.443C213.408 171.079 211.033 174.027 208.409 176.909C208.268 177.065 208.128 177.221 207.982 177.381C207.637 177.754 207.274 178.111 206.909 178.464C206.729 178.464 206.549 178.464 206.364 178.464C206.364 178.645 206.364 178.825 206.364 179.011C205.936 179.404 205.489 179.777 205.034 180.139C204.762 180.357 204.491 180.574 204.211 180.798C203.931 181.02 203.652 181.243 203.364 181.472C203.104 181.686 202.844 181.9 202.576 182.12C202.215 182.417 202.215 182.417 201.847 182.719C201.627 182.9 201.407 183.081 201.181 183.267C200.636 183.659 200.636 183.659 200.091 183.659C200.091 183.84 200.091 184.02 200.091 184.206C199.54 184.611 199.54 184.611 198.779 185.077C198.507 185.245 198.236 185.413 197.956 185.586C197.671 185.762 197.385 185.938 197.091 186.12C196.292 186.639 195.493 187.16 194.695 187.682C194.091 188.034 194.091 188.034 193.546 188.034C193.546 188.214 193.546 188.395 193.546 188.581C186.773 192.406 179.864 195.964 172.4 198.218C171.11 198.612 169.82 199.016 168.574 199.534C164.479 201.113 159.76 201.74 155.453 202.454C155.203 202.496 154.953 202.537 154.696 202.58C154.365 202.633 154.365 202.633 154.028 202.688C153.406 202.794 153.406 202.794 152.636 203.071C148.51 203.717 144.362 203.703 140.196 203.689C139.269 203.686 138.342 203.688 137.415 203.691C130.537 203.711 130.537 203.711 127.332 203.205C125.776 202.968 124.207 202.891 122.636 202.798C122.636 202.708 122.636 202.617 122.636 202.524C123.152 202.419 123.152 202.419 123.678 202.312C127.57 201.474 131.418 200.297 134.935 198.386C136.538 197.657 139.31 198.86 140.926 199.243C141.554 199.392 142.183 199.54 142.811 199.688C143.087 199.753 143.364 199.819 143.648 199.886C146.555 200.525 150.568 201.118 153.261 199.565C153.415 199.459 153.569 199.353 153.727 199.243C154.014 199.063 154.301 198.883 154.597 198.697C156.244 197.192 157.014 194.983 157.205 192.818C157.209 192.556 157.213 192.294 157.217 192.024C157.623 191.147 157.872 191.093 158.745 190.733C159.252 190.555 159.761 190.384 160.273 190.221C160.515 190.141 160.757 190.061 161.006 189.979C161.749 189.74 162.493 189.51 163.239 189.281C165.144 188.686 166.994 188.052 168.822 187.244C169.835 186.818 170.874 186.493 171.924 186.171C172.965 185.793 173.954 185.333 174.959 184.868C176.386 184.222 177.836 183.63 179.283 183.03C183.17 181.414 187.014 179.722 190.818 177.918C191.128 177.771 191.438 177.624 191.758 177.472C203.757 172.85 203.757 172.85 212.705 164.811C212.841 164.532 212.977 164.254 213.118 163.966C213.617 162.763 213.761 161.633 213.814 160.337C213.825 160.07 213.837 159.803 213.848 159.528C213.864 159.115 213.864 159.115 213.881 158.694C213.893 158.413 213.904 158.132 213.916 157.843C213.945 157.153 213.973 156.462 214 155.772Z" fill="#D7D7E5"/>
<path d="M130.358 175.423C130.723 175.426 131.088 175.428 131.453 175.43C132.332 175.437 133.212 175.446 134.091 175.457C134.091 176.269 134.091 177.081 134.091 177.918C132.31 178.235 130.538 178.497 128.739 178.687C126.449 178.946 124.291 179.558 122.088 180.219C121.361 180.433 120.627 180.618 119.892 180.805C117.692 181.409 115.803 182.397 113.909 183.659C114.132 185.182 114.55 186.609 114.991 188.081C115.633 190.461 115.906 192.657 115.886 195.125C115.89 195.546 115.89 195.546 115.893 195.976C115.892 196.245 115.891 196.513 115.891 196.79C115.89 197.032 115.89 197.274 115.889 197.523C115.818 198.15 115.818 198.15 115.273 198.97C122.181 198.818 129.276 198.258 135.506 194.954C136.697 194.331 137.663 194.123 139 194.049C139.18 194.41 139.36 194.77 139.546 195.142C141.286 195.235 142.849 194.885 144.54 194.493C145.079 194.371 145.617 194.249 146.156 194.128C146.42 194.068 146.685 194.007 146.957 193.945C147.669 193.788 148.381 193.646 149.096 193.508C150.602 193.211 152.077 192.816 153.557 192.408C153.822 192.337 154.086 192.266 154.359 192.193C154.614 192.123 154.869 192.053 155.132 191.981C155.36 191.919 155.588 191.856 155.823 191.792C156.437 191.594 156.979 191.346 157.546 191.041C157.771 193.712 156.976 196.211 155.279 198.304C153.732 199.912 151.843 200.638 149.635 200.69C145.645 200.724 141.913 199.907 138.074 198.864C136.128 198.405 135.089 198.425 133.324 199.295C132.964 199.464 132.605 199.633 132.245 199.802C131.967 199.933 131.967 199.933 131.684 200.066C124.599 203.306 113.427 205.795 105.828 203.366C103.433 202.272 102.263 200.238 101.28 197.872C100.572 195.838 100.453 193.776 100.46 191.639C100.456 191.389 100.452 191.139 100.447 190.882C100.446 189.494 100.523 188.641 101.364 187.487C101.375 187.233 101.386 186.979 101.398 186.718C101.785 185.305 102.931 184.5 104.091 183.659C104.271 183.659 104.451 183.659 104.636 183.659C104.636 183.479 104.636 183.298 104.636 183.112C111.079 179.435 111.079 179.435 113.528 178.681C114.184 178.464 114.81 178.208 115.446 177.938C116.848 177.372 118.251 176.989 119.722 176.653C119.953 176.597 120.184 176.542 120.422 176.484C123.754 175.704 126.936 175.378 130.358 175.423Z" fill="#2A3054"/>
<path d="M29.6598 72.9064C31.3606 74.226 32.6534 75.7119 33.7273 77.5768C33.8744 77.8221 33.8744 77.8221 34.0245 78.0723C35.0804 80.2577 34.8455 83.6054 34.2387 85.9157C33.1194 89.0225 30.7462 91.4202 27.8019 92.8415C26.3223 93.4675 24.9745 93.5675 23.3807 93.5541C23.151 93.5595 22.9212 93.565 22.6845 93.5706C19.8685 93.5685 17.5745 92.2614 15.5568 90.3415C14.6868 89.4386 14.097 88.5395 13.5455 87.4195C13.3931 87.1699 13.3931 87.1699 13.2376 86.9154C12.0114 84.6881 12.106 81.8315 12.6634 79.3999C13.1369 78.0227 13.7486 76.8226 14.6364 75.6629C14.822 75.3979 15.0076 75.1328 15.1989 74.8598C18.7397 70.7222 25.1437 70.0926 29.6598 72.9064Z" fill="#F8F7FD"/>
<path d="M134.091 178.191C134.105 178.418 134.119 178.645 134.134 178.879C134.374 181.501 134.961 183.963 135.676 186.496C135.767 186.821 135.857 187.145 135.95 187.48C136.458 189.229 137.041 190.801 137.95 192.381C138.182 192.955 138.182 192.955 138.137 193.543C137.728 194.45 136.757 194.739 135.898 195.142C135.625 195.278 135.625 195.278 135.347 195.416C132.774 196.664 130.152 197.485 127.358 198.064C126.957 198.151 126.957 198.151 126.548 198.24C123.836 198.817 121.315 199.008 118.546 198.987C118.23 198.986 117.915 198.985 117.59 198.983C116.818 198.98 116.045 198.976 115.273 198.97C115.363 198.699 115.453 198.429 115.546 198.15C115.888 193.954 115.596 189.713 113.991 185.794C113.648 184.892 113.505 184.306 113.909 183.386C114.437 182.932 114.437 182.932 115.119 182.548C115.338 182.421 115.557 182.294 115.783 182.163C118.047 181.055 120.377 180.311 122.807 179.661C123.119 179.577 123.431 179.494 123.752 179.407C127.205 178.508 130.512 178.069 134.091 178.191Z" fill="#893EFD"/>
<path d="M188.909 133.625C192.313 134.275 195.415 135.672 198.545 137.122C199.085 137.368 199.629 137.603 200.176 137.833C203.398 139.214 206.403 140.936 209.091 143.195C209.294 143.364 209.497 143.533 209.706 143.707C210.542 144.467 211.081 145.031 211.273 146.168C211.273 146.45 211.273 146.732 211.273 147.022C211 147.296 211 147.296 209.991 147.303C209.538 147.295 209.084 147.287 208.631 147.279C203.484 147.231 198.29 147.783 193.273 148.936C193.054 148.986 192.835 149.035 192.61 149.087C189.416 149.814 186.291 150.634 183.182 151.67C182.632 151.852 182.083 152.033 181.534 152.214C178.448 153.221 178.448 153.221 175.401 154.334C174.455 154.678 174.455 154.678 173.636 154.678C173.566 151.35 173.746 148.135 174.182 144.835C177.141 143.587 177.141 143.587 178.477 143.07C180.585 142.252 182.618 141.383 184.545 140.187C184.883 139.978 184.883 139.978 185.227 139.764C187.416 138.249 188.17 136.116 188.909 133.625Z" fill="#2A3054"/>
<path d="M109 159.599C126.46 159.599 143.92 159.599 161.909 159.599C161.199 160.311 160.384 160.588 159.472 160.966C157.069 161.992 154.781 163.2 152.483 164.439C151.822 164.792 151.157 165.138 150.491 165.481C148.129 166.701 145.836 167.975 143.608 169.429C142.325 170.262 142.325 170.262 141.727 170.262C141.727 170.443 141.727 170.623 141.727 170.809C140.455 171.447 139.182 172.085 137.909 172.723C137.909 172.903 137.909 173.084 137.909 173.27C137.461 173.603 137.461 173.603 136.869 173.953C136.676 174.069 136.483 174.184 136.284 174.304C136.101 174.413 135.917 174.523 135.727 174.637C135.457 174.817 135.187 174.998 134.909 175.184C134.909 174.913 134.909 174.642 134.909 174.363C135.089 174.363 135.269 174.363 135.455 174.363C135.455 174.183 135.455 174.002 135.455 173.816C135.635 173.816 135.815 173.816 136 173.816C136 173.456 136 173.095 136 172.723C135.786 172.706 135.573 172.689 135.352 172.672C134.22 172.417 133.329 171.967 132.309 171.425C131.642 171.085 130.97 170.804 130.273 170.536C130.273 170.355 130.273 170.175 130.273 169.989C130.117 169.955 129.961 169.92 129.801 169.885C129.161 169.71 128.608 169.474 128.009 169.189C127.787 169.084 127.566 168.978 127.337 168.87C127.108 168.76 126.878 168.65 126.642 168.536C126.416 168.429 126.19 168.322 125.956 168.212C124.632 167.58 123.36 166.898 122.091 166.161C121.434 165.819 120.776 165.483 120.114 165.153C119.929 165.06 119.744 164.968 119.553 164.873C117.835 164.019 116.102 163.197 114.368 162.377C110.227 160.419 110.227 160.419 109 159.599Z" fill="#292F53"/>
<path d="M87.7273 132.805C87.7839 132.958 87.8405 133.111 87.8988 133.269C89.2111 136.693 90.7087 139.646 93.1818 142.375C93.3323 142.551 93.4828 142.727 93.6378 142.909C95.2904 144.729 97.5529 145.933 99.7273 147.022C99.7273 149.729 99.7273 152.436 99.7273 155.225C98.9253 155.024 98.254 154.815 97.4997 154.504C97.1716 154.37 97.1716 154.37 96.8369 154.233C96.4873 154.089 96.4873 154.089 96.1307 153.943C93.8149 153.004 91.4868 152.129 89.1223 151.322C88.5293 151.118 87.9387 150.908 87.348 150.696C84.6092 149.732 81.8777 149.054 79.0274 148.51C78.491 148.397 77.9618 148.251 77.434 148.103C74.6522 147.395 71.6715 147.532 68.8239 147.552C68.4887 147.553 68.1534 147.555 67.8081 147.556C66.9932 147.559 66.1785 147.564 65.3636 147.569C65.6485 145.936 66.4227 145.193 67.5455 144.015C67.7125 143.833 67.8795 143.652 68.0515 143.465C72.1152 139.19 81.4412 132.805 87.7273 132.805Z" fill="#2A3054"/>
<path d="M63.1819 160.966C63.2719 160.966 63.3619 160.966 63.4546 160.966C63.4813 161.158 63.5081 161.35 63.5356 161.547C64.1472 165.438 65.9404 167.484 69.0832 169.783C73.2861 172.78 77.727 175.477 82.2728 177.918C82.5468 178.065 82.8208 178.212 83.1031 178.364C86.8302 180.355 90.5881 182.253 94.4433 183.984C94.7645 184.128 95.0857 184.273 95.4166 184.421C97.2832 185.248 99.1629 185.997 101.091 186.667C101.046 186.949 101.002 187.231 100.956 187.521C100.742 189.236 100.789 190.957 100.801 192.682C100.803 193.195 100.803 193.195 100.805 193.719C100.808 194.558 100.813 195.397 100.818 196.236C98.7139 195.674 96.7733 194.884 94.8012 193.963C94.4959 193.821 94.1905 193.679 93.8759 193.533C89.9544 191.679 86.1726 189.554 82.4848 187.27C82.2348 187.115 81.9848 186.961 81.7273 186.801C81.5473 186.666 81.3673 186.532 81.1819 186.393C81.1819 186.213 81.1819 186.032 81.1819 185.846C80.9928 185.781 80.8036 185.715 80.6087 185.647C79.6833 185.24 78.8945 184.71 78.0796 184.121C77.8333 183.943 77.8333 183.943 77.582 183.762C75.7441 182.415 74.0429 180.915 72.3441 179.397C71.7974 178.912 71.2393 178.441 70.6819 177.969C68.9753 176.465 67.4087 174.642 66.1819 172.723C66.1819 172.542 66.1819 172.362 66.1819 172.176C66.0019 172.176 65.8219 172.176 65.6364 172.176C65.2369 171.442 65.2369 171.442 64.8374 170.708C64.569 170.217 64.569 170.217 64.0001 169.989C62.7939 166.944 62.0782 164.147 63.1819 160.966Z" fill="#D8D7E5"/>
<path d="M100 154.131C100.09 154.131 100.18 154.131 100.273 154.131C100.273 154.582 100.273 155.033 100.273 155.498C124.393 155.498 148.513 155.498 173.364 155.498C173.364 156.761 173.364 158.024 173.364 159.326C149.154 159.326 124.944 159.326 100 159.326C100 157.612 100 155.897 100 154.131Z" fill="#A0A8AB"/>
<path d="M26.3637 71.8352C29.001 72.1386 30.7091 73.5306 32.4042 75.5358C32.8883 76.1983 33.3179 76.8658 33.7273 77.5768C33.8745 77.8221 33.8745 77.8221 34.0246 78.0723C35.0805 80.2577 34.8455 83.6054 34.2387 85.9157C33.0886 89.1081 30.6805 91.3774 27.7156 92.9005C26.3459 93.4815 25.1064 93.51 23.6364 93.4345C23.5911 91.094 23.7147 88.8067 23.9603 86.4796C23.9956 86.1407 24.0309 85.8017 24.0673 85.4525C24.5708 80.8766 25.3307 76.3212 26.3637 71.8352Z" fill="#E7E6F5"/>
<path d="M219.873 65.4755C220.052 65.4745 220.23 65.4735 220.414 65.4724C221.012 65.4696 221.61 65.4706 222.208 65.4717C222.636 65.4705 223.065 65.4691 223.494 65.4675C224.658 65.4638 225.822 65.4637 226.986 65.4644C227.957 65.4647 228.929 65.4633 229.9 65.462C232.191 65.459 234.481 65.4589 236.772 65.4605C239.137 65.4622 241.502 65.4588 243.867 65.453C245.896 65.4482 247.926 65.4465 249.955 65.4474C251.168 65.4479 252.38 65.4472 253.593 65.4434C254.733 65.44 255.872 65.4405 257.012 65.444C257.431 65.4447 257.849 65.4439 258.268 65.4417C258.839 65.4388 259.409 65.441 259.98 65.4445C260.459 65.4444 260.459 65.4444 260.948 65.4444C261.727 65.5468 261.727 65.5468 262.249 65.911C262.546 66.367 262.546 66.367 262.494 67.2044C262.273 68.0075 262.273 68.0075 261.727 68.5543C260.977 68.6239 260.977 68.6239 260 68.6256C259.821 68.6266 259.642 68.6277 259.457 68.6288C258.854 68.6316 258.251 68.6305 257.648 68.6294C257.216 68.6306 256.785 68.632 256.354 68.6336C255.18 68.6373 254.006 68.6375 252.833 68.6368C251.854 68.6365 250.875 68.6378 249.896 68.6391C247.588 68.6422 245.28 68.6423 242.971 68.6406C240.587 68.639 238.203 68.6423 235.82 68.6482C233.775 68.653 231.731 68.6546 229.686 68.6537C228.464 68.6532 227.242 68.654 226.02 68.6577C224.871 68.6612 223.722 68.6607 222.573 68.6571C222.151 68.6564 221.728 68.6572 221.306 68.6594C220.731 68.6623 220.155 68.6601 219.58 68.6566C219.096 68.6567 219.096 68.6567 218.603 68.6568C217.818 68.5543 217.818 68.5543 217.302 68.1923C216.849 67.5044 216.947 66.8955 217 66.0936C217.966 65.4951 218.75 65.4775 219.873 65.4755Z" fill="#DDDCEA"/>
<path d="M211.745 40.3238C212.078 40.3223 212.41 40.3207 212.753 40.3191C213.124 40.3202 213.495 40.3213 213.865 40.3225C214.254 40.3218 214.643 40.3208 215.032 40.3196C216.089 40.3171 217.147 40.3181 218.205 40.3198C219.31 40.3212 220.415 40.3199 221.52 40.319C223.376 40.3181 225.232 40.3194 227.089 40.322C229.237 40.3249 231.385 40.324 233.533 40.321C235.375 40.3185 237.217 40.3181 239.059 40.3196C240.16 40.3204 241.261 40.3205 242.363 40.3187C243.398 40.3172 244.433 40.3182 245.468 40.3214C245.849 40.3221 246.229 40.3219 246.61 40.3207C247.128 40.3192 247.646 40.3214 248.164 40.3238C248.6 40.3241 248.6 40.3241 249.044 40.3244C249.727 40.3933 249.727 40.3933 250.273 40.9401C250.369 41.694 250.402 42.1241 249.957 42.7545C249.251 43.2783 248.755 43.2305 247.881 43.2315C247.553 43.2338 247.225 43.2361 246.887 43.2385C246.523 43.2369 246.159 43.2352 245.795 43.2335C245.412 43.2346 245.029 43.236 244.646 43.2378C243.605 43.2416 242.564 43.2401 241.523 43.2375C240.435 43.2354 239.347 43.2374 238.258 43.2387C236.431 43.2401 234.603 43.2382 232.775 43.2343C230.661 43.2298 228.547 43.2313 226.433 43.2358C224.619 43.2395 222.805 43.24 220.991 43.2379C219.907 43.2366 218.823 43.2364 217.739 43.2391C216.72 43.2415 215.701 43.2399 214.682 43.2351C214.307 43.234 213.933 43.2343 213.559 43.2362C213.049 43.2384 212.538 43.2351 212.028 43.2315C211.742 43.2312 211.456 43.2309 211.162 43.2306C210.455 43.1273 210.455 43.1273 209.952 42.7545C209.507 42.1241 209.54 41.694 209.636 40.9401C210.367 40.2075 210.723 40.3245 211.745 40.3238Z" fill="#E5E7E8"/>
<path d="M219.047 52.9006C219.525 52.8983 219.525 52.8983 220.013 52.8959C220.365 52.897 220.716 52.8981 221.079 52.8993C221.451 52.8985 221.824 52.8976 222.197 52.8964C223.211 52.8939 224.224 52.8949 225.238 52.8966C226.297 52.898 227.356 52.8967 228.416 52.8958C230.195 52.8948 231.974 52.8961 233.753 52.8987C235.812 52.9017 237.871 52.9008 239.93 52.8978C241.696 52.8953 243.461 52.8949 245.227 52.8964C246.282 52.8972 247.338 52.8973 248.393 52.8955C249.385 52.8939 250.377 52.895 251.369 52.8982C251.909 52.8993 252.448 52.8976 252.987 52.8959C253.465 52.8982 253.465 52.8982 253.954 52.9006C254.232 52.9008 254.51 52.901 254.797 52.9012C255.455 52.97 255.455 52.97 256 53.5169C256.068 54.3371 256.068 54.3371 256 55.1573C255.28 55.8791 254.958 55.7728 253.954 55.7736C253.635 55.7751 253.316 55.7766 252.987 55.7782C252.635 55.7771 252.284 55.776 251.921 55.7749C251.549 55.7756 251.176 55.7766 250.803 55.7778C249.79 55.7803 248.776 55.7793 247.762 55.7776C246.703 55.7762 245.644 55.7775 244.584 55.7783C242.805 55.7793 241.026 55.778 239.247 55.7754C237.188 55.7724 235.129 55.7734 233.07 55.7764C231.305 55.7789 229.539 55.7792 227.773 55.7778C226.718 55.777 225.663 55.7768 224.607 55.7786C223.615 55.7802 222.623 55.7791 221.631 55.776C221.092 55.7749 220.552 55.7765 220.013 55.7782C219.694 55.7767 219.375 55.7751 219.047 55.7736C218.768 55.7734 218.49 55.7731 218.203 55.7729C217.546 55.7041 217.546 55.7041 217 55.1573C216.932 54.3371 216.932 54.3371 217 53.5169C217.72 52.795 218.042 52.9013 219.047 52.9006Z" fill="#E3E3E8"/>
<path d="M210.726 26.3123C210.944 26.3108 211.163 26.3093 211.389 26.3078C212.111 26.3044 212.833 26.3089 213.556 26.3138C214.059 26.3138 214.561 26.3133 215.064 26.3126C216.117 26.3122 217.171 26.3156 218.224 26.3219C219.574 26.3296 220.923 26.3289 222.272 26.3254C223.31 26.3235 224.348 26.3256 225.387 26.329C225.884 26.3303 226.381 26.3304 226.879 26.3293C227.575 26.3285 228.271 26.333 228.966 26.339C229.274 26.3371 229.274 26.3371 229.588 26.3352C230.916 26.3541 231.861 26.5839 232.818 27.5431C232.938 28.1582 232.938 28.1582 232.818 28.9101C231.904 29.8656 231.473 30.229 230.156 30.4471C229.767 30.4535 229.378 30.4525 228.99 30.4454C228.776 30.4469 228.563 30.4484 228.343 30.45C227.641 30.4532 226.94 30.4466 226.238 30.4395C225.748 30.439 225.258 30.439 224.769 30.4395C223.744 30.4391 222.72 30.434 221.695 30.4253C220.383 30.4145 219.071 30.4133 217.759 30.4153C216.749 30.4162 215.738 30.4129 214.728 30.4082C214.244 30.4063 213.76 30.4054 213.276 30.4057C212.6 30.4052 211.924 30.3993 211.248 30.392C211.049 30.3928 210.85 30.3936 210.644 30.3944C209.452 30.3744 208.661 30.2195 207.727 29.4569C207.438 28.5171 207.438 28.5171 207.455 27.5431C208.321 26.2784 209.307 26.294 210.726 26.3123Z" fill="#CACED0"/>
<path d="M218.829 78.3276C219.1 78.326 219.371 78.3245 219.65 78.3229C219.948 78.324 220.246 78.3251 220.553 78.3263C220.866 78.3253 221.179 78.3243 221.502 78.3233C222.541 78.3209 223.58 78.3225 224.619 78.3244C225.339 78.324 226.058 78.3235 226.778 78.3228C228.287 78.3218 229.797 78.3231 231.306 78.3257C233.053 78.3287 234.799 78.3277 236.546 78.3247C238.224 78.3219 239.903 78.3222 241.581 78.3238C242.296 78.3242 243.011 78.3237 243.726 78.3225C244.724 78.3211 245.722 78.3232 246.72 78.3263C247.018 78.3251 247.316 78.324 247.623 78.3229C248.029 78.3252 248.029 78.3252 248.444 78.3276C248.68 78.3278 248.916 78.328 249.159 78.3282C249.727 78.397 249.727 78.397 250.273 78.9438C250.37 79.7076 250.407 80.1302 249.94 80.7583C249.308 81.244 248.941 81.2342 248.148 81.2352C247.88 81.2376 247.611 81.2399 247.334 81.2423C247.039 81.2406 246.745 81.2389 246.441 81.2372C245.975 81.2394 245.975 81.2394 245.5 81.2416C244.471 81.2452 243.443 81.2428 242.414 81.24C241.701 81.2406 240.988 81.2414 240.275 81.2424C238.78 81.2439 237.285 81.2419 235.79 81.238C234.06 81.2336 232.33 81.235 230.601 81.2395C228.938 81.2437 227.275 81.2433 225.612 81.2408C224.904 81.2403 224.196 81.241 223.488 81.2429C222.499 81.245 221.512 81.2418 220.524 81.2372C220.081 81.2397 220.081 81.2397 219.629 81.2423C219.227 81.2388 219.227 81.2388 218.817 81.2352C218.466 81.2348 218.466 81.2348 218.109 81.2343C217.923 81.2002 217.737 81.1662 217.545 81.1311C216.959 80.2497 216.896 79.9644 217 78.9438C217.681 78.2609 217.889 78.3284 218.829 78.3276Z" fill="#E3E3E9"/>
<path d="M139.188 126.824C140.571 127.656 141.214 128.527 141.727 130.071C141.947 131.618 141.856 132.808 141.028 134.155C140.205 135.242 139.532 135.753 138.182 136.086C136.442 136.262 135.056 136.248 133.546 135.266C133.546 135.085 133.546 134.905 133.546 134.719C133.366 134.719 133.186 134.719 133 134.719C131.794 133.056 131.663 131.555 131.909 129.524C132.188 128.878 132.188 128.878 132.455 128.431C132.635 128.431 132.815 128.431 133 128.431C133.067 128.263 133.133 128.095 133.201 127.922C134.398 125.887 137.322 125.882 139.188 126.824Z" fill="#E5E7E6"/>
<path d="M137.466 23.6983C138.04 23.8529 138.614 24.0061 139.189 24.1579C139.707 24.2951 140.223 24.436 140.739 24.5772C142.23 24.9268 143.722 25.1218 145.256 25.1166C145.563 25.1176 145.563 25.1176 145.877 25.1187C146.954 25.0672 148.02 24.9375 149.091 24.809C149.151 24.9477 149.211 25.0865 149.273 25.2295C150.635 28.3364 152.099 30.954 154.273 33.5581C154.453 33.8287 154.633 34.0994 154.818 34.3783C154.458 34.3783 154.098 34.3783 153.727 34.3783C153.637 34.1076 153.411 33.9736 153.318 33.6948C152.956 33.4196 152.729 33.0093 152.364 32.7378L152.091 32.4644L151.546 31.9176C150.268 30.3814 148.546 27.9441 148.546 25.9026C148.353 25.9816 148.16 26.0605 147.962 26.1419C143.308 27.8299 138.479 27.0769 133.821 25.7479C132.401 25.354 131.062 25.2556 129.591 25.2533C129.372 25.2466 129.153 25.2399 128.927 25.233C127.334 25.2252 126.154 25.5659 124.818 26.4494C123.903 27.3671 123.366 28.4655 122.753 29.5958C122.321 30.3514 121.86 31.0757 121.375 31.798C121.22 32.0295 121.064 32.2611 120.904 32.4997C120.682 32.7529 120.682 32.7529 120.455 33.0112C120.185 33.0112 119.915 33.0112 119.636 33.0112C119.762 32.7793 119.887 32.5474 120.016 32.3085C120.186 31.985 120.355 31.661 120.523 31.3366C120.612 31.1655 120.701 30.9944 120.792 30.8181C121.396 29.6085 121.748 28.4606 122.04 27.133C122.392 25.8132 122.672 25.1155 123.83 24.3647C124.556 24.0187 124.556 24.0187 125.364 23.7154C125.658 23.604 125.953 23.4926 126.257 23.3779C130.146 22.0987 133.616 22.6355 137.466 23.6983Z" fill="#F87C71"/>
<path d="M219.165 46.6045C219.392 46.6052 219.618 46.6059 219.852 46.6066C220.091 46.6052 220.329 46.6038 220.575 46.6023C221.366 46.5985 222.158 46.5988 222.949 46.5994C223.497 46.5983 224.045 46.5972 224.594 46.5959C225.744 46.5938 226.894 46.5939 228.044 46.5953C229.52 46.5969 230.997 46.5923 232.473 46.5859C233.606 46.5819 234.738 46.5817 235.87 46.5825C236.415 46.5824 236.96 46.581 237.504 46.5782C238.264 46.5749 239.024 46.5767 239.784 46.5799C240.011 46.5778 240.238 46.5757 240.471 46.5735C241.097 46.5793 241.097 46.5793 242.091 46.6816C242.636 47.5019 242.636 47.5019 242.585 48.2025C242.364 48.8689 242.364 48.8689 241.545 49.4157C240.774 49.4704 240.03 49.4932 239.258 49.4908C239.025 49.4922 238.791 49.4936 238.551 49.4951C237.779 49.4989 237.007 49.4986 236.235 49.498C235.699 49.499 235.164 49.5002 234.628 49.5015C233.505 49.5036 232.383 49.5035 231.26 49.502C229.818 49.5005 228.377 49.5051 226.935 49.5114C225.83 49.5154 224.724 49.5157 223.618 49.5148C223.086 49.515 222.554 49.5164 222.023 49.5192C221.281 49.5225 220.539 49.5207 219.798 49.5175C219.466 49.5207 219.466 49.5207 219.127 49.5239C218.517 49.518 218.517 49.518 217.545 49.4157C216.959 48.5343 216.896 48.2491 217 47.2285C217.709 46.5182 218.2 46.6136 219.165 46.6045Z" fill="#E3E4E9"/>
<path d="M229.08 59.1843C229.381 59.186 229.381 59.186 229.688 59.1877C229.9 59.1867 230.111 59.1858 230.329 59.1848C231.031 59.1824 231.732 59.184 232.434 59.1858C232.92 59.1854 233.406 59.1849 233.893 59.1842C234.913 59.1834 235.934 59.1846 236.954 59.1871C238.263 59.1903 239.572 59.1885 240.881 59.1852C241.886 59.1832 242.891 59.1838 243.896 59.1853C244.379 59.1856 244.861 59.1852 245.344 59.1839C246.019 59.1825 246.693 59.1846 247.367 59.1877C247.568 59.1866 247.768 59.1855 247.974 59.1843C248.983 59.1928 249.41 59.2288 250.273 59.8052C250.358 60.6255 250.358 60.6255 250.273 61.4457C249.593 62.1272 249.191 62.0589 248.264 62.0666C247.958 62.065 247.958 62.065 247.646 62.0633C247.431 62.0642 247.217 62.0652 246.996 62.0662C246.284 62.0686 245.572 62.067 244.861 62.0651C244.368 62.0655 243.874 62.066 243.381 62.0667C242.347 62.0675 241.312 62.0664 240.278 62.0638C238.95 62.0607 237.622 62.0625 236.294 62.0658C235.275 62.0677 234.256 62.0671 233.238 62.0657C232.748 62.0653 232.258 62.0658 231.769 62.067C231.085 62.0684 230.401 62.0663 229.718 62.0633C229.514 62.0644 229.31 62.0655 229.1 62.0666C227.699 62.055 227.699 62.055 227.091 61.4457C227.023 60.6255 227.023 60.6255 227.091 59.8052C227.767 59.1276 228.157 59.1921 229.08 59.1843Z" fill="#E2E2E9"/>
<path d="M212.083 72.0379C212.377 72.0364 212.377 72.0364 212.676 72.035C213.324 72.0325 213.973 72.0341 214.621 72.036C215.071 72.0356 215.521 72.0351 215.97 72.0344C216.914 72.0336 217.857 72.0348 218.801 72.0373C220.011 72.0404 221.221 72.0386 222.431 72.0354C223.36 72.0334 224.289 72.034 225.218 72.0354C225.664 72.0358 226.11 72.0354 226.556 72.0341C227.18 72.0327 227.803 72.0348 228.427 72.0379C228.782 72.0383 229.137 72.0387 229.503 72.0392C230.364 72.1086 230.364 72.1086 231.182 72.6554C231.297 73.4046 231.309 73.8304 230.886 74.4697C230.092 75.0367 229.422 74.947 228.456 74.9488C228.167 74.951 228.167 74.951 227.871 74.9532C227.233 74.9568 226.595 74.9544 225.957 74.9516C225.514 74.9522 225.071 74.953 224.628 74.954C223.699 74.9552 222.77 74.9535 221.841 74.9496C220.649 74.945 219.458 74.9476 218.267 74.9526C217.352 74.9555 216.436 74.9546 215.521 74.9525C215.082 74.9519 214.642 74.9526 214.203 74.9545C213.589 74.9566 212.976 74.9534 212.362 74.9488C212.013 74.9482 211.663 74.9475 211.303 74.9468C210.455 74.8427 210.455 74.8427 209.932 74.4697C209.514 73.8367 209.541 73.3975 209.636 72.6554C210.423 71.8669 210.982 72.0392 212.083 72.0379Z" fill="#E0DFEA"/>
<path d="M72.7444 14.0777C74.3636 14.3488 75.2895 15.9636 76.2728 17.1536C76.5259 17.4073 76.7791 17.6611 77.0398 17.9225C77.6364 18.5206 77.6364 18.5206 78.233 19.2725C78.6736 19.9081 78.6736 19.9081 79.2728 20.1611C79.4117 20.9567 79.4284 21.5516 78.9916 22.2533C78.4734 22.8588 77.9232 23.421 77.3637 23.9888C77.0336 24.3392 76.7037 24.6899 76.374 25.0407C76.0112 25.4196 75.6479 25.798 75.2842 26.176C75.1082 26.363 74.9322 26.5499 74.7509 26.7425C74.5802 26.9165 74.4096 27.0904 74.2337 27.2697C74.0816 27.4276 73.9296 27.5855 73.7728 27.7481C73.1058 28.204 72.6995 28.2134 71.9092 28.0899C71.3637 27.2697 71.3637 27.2697 71.336 26.5285C71.7819 25.194 72.694 24.4762 73.716 23.5445C74.1032 23.1911 74.4876 22.8345 74.8687 22.4743C75.0398 22.3187 75.2108 22.163 75.3871 22.0027C75.787 21.5504 75.787 21.5504 75.6936 20.9756C75.4269 20.3716 75.1463 20.0349 74.6716 19.579C74.515 19.4259 74.3584 19.2727 74.197 19.1149C74.0326 18.9583 73.8683 18.8016 73.6989 18.6402C73.3748 18.3272 73.0513 18.0136 72.7284 17.6993C72.5845 17.5617 72.4405 17.424 72.2922 17.2822C71.7046 16.6655 71.3789 16.2161 71.2955 15.3593C71.403 14.3092 71.7208 14.1615 72.7444 14.0777Z" fill="#E2E3E9"/>
<path d="M57.3609 14.0403C58.0001 14.1461 58.0001 14.1461 58.5456 14.6929C58.7149 15.4074 58.7149 15.4074 58.5456 16.3333C57.9062 17.1664 57.1503 17.8607 56.3808 18.5719C55.9738 18.9562 55.5678 19.3417 55.1631 19.7285C54.9817 19.897 54.8003 20.0656 54.6134 20.2392C54.118 20.7129 54 21 54.251 21.3562C54.431 21.3562 54.2692 21.5281 54.4546 21.5281C54.8488 21.9297 54.8488 21.9297 55.3069 22.485C56.0184 23.3349 56.7598 24.0923 57.574 24.8432C58.3111 25.5693 58.5228 25.7793 58.716 26.8254C58.5456 27.5431 58.5456 27.5431 58.0001 28.0899C57.4014 28.2351 57.4014 28.2351 56.6365 28.0899C55.9371 27.5693 55.3569 26.9477 54.7615 26.3127C54.593 26.1384 54.4245 25.964 54.251 25.7844C53.0972 24.5826 51.9784 23.3531 50.9092 22.0749C50.8192 21.9847 50.7292 21.8945 50.6365 21.8015C50.5245 20.9276 50.5605 20.5448 51.0658 19.8107C51.256 19.6106 51.4462 19.4104 51.6421 19.2041C51.8432 18.9898 52.0443 18.7756 52.2515 18.5548C52.4385 18.363 52.6256 18.1713 52.8183 17.9738C53.0377 17.7482 53.257 17.5227 53.4831 17.2903C53.829 16.9519 53.829 16.9519 54.1819 16.6067C54.4693 16.2954 54.4693 16.2954 54.7625 15.9777C54.9759 15.7511 55.1893 15.5245 55.4092 15.291C55.6089 15.0749 55.8086 14.8589 56.0143 14.6363C56.6365 14.1461 56.6365 14.1461 57.3609 14.0403Z" fill="#E2E2E9"/>
<path d="M66.4547 14.1461C67.9733 14.3014 67.9733 14.3014 68.3638 14.6929C68.4671 16.0108 68.1956 16.9847 67.7331 18.213C67.6076 18.5499 67.4821 18.8869 67.3528 19.234C67.2364 19.5399 67.12 19.8459 67.0001 20.161C66.8637 20.537 66.7273 20.9129 66.591 21.2889C66.0389 22.7513 65.4236 24.1884 64.8183 25.6292C64.7357 25.8326 64.6531 26.0359 64.568 26.2455C64.262 26.9912 64.03 27.5131 63.4547 28.0899C62.7729 28.1753 62.7729 28.1753 62.091 28.0899C61.5073 27.2122 61.4856 26.9566 61.6641 25.957C62.004 24.6321 62.5186 23.3656 63.0115 22.092C63.1205 21.806 63.2295 21.52 63.3417 21.2253C63.5541 20.6681 63.7673 20.1113 63.9813 19.5547C64.2356 18.8912 64.4862 18.2264 64.7341 17.5605C65.746 14.8565 65.746 14.8565 66.4547 14.1461Z" fill="#E1E1E9"/>
<path d="M125.091 55.4307C125.338 55.5773 125.586 55.7239 125.841 55.875C126.227 56.092 126.613 56.3084 127 56.5243C127.225 56.6562 127.451 56.788 127.683 56.9238C131.549 59.0478 135.756 59.4291 140.091 59.5318C136.795 61.7343 131.735 61.1971 128.015 60.5283C126.991 60.2851 126.057 59.9498 125.091 59.5318C125.091 58.1785 125.091 56.8251 125.091 55.4307Z" fill="#FE8174"/>
<path d="M211.745 40.3238C212.078 40.3223 212.411 40.3207 212.753 40.3191C213.124 40.3202 213.495 40.3213 213.865 40.3225C214.254 40.3218 214.643 40.3208 215.032 40.3196C216.089 40.3171 217.147 40.3181 218.205 40.3198C219.31 40.3212 220.415 40.3199 221.52 40.319C223.376 40.3181 225.233 40.3194 227.089 40.322C229.237 40.3249 231.385 40.324 233.533 40.321C235.375 40.3185 237.217 40.3181 239.059 40.3196C240.16 40.3204 241.262 40.3205 242.363 40.3187C243.398 40.3172 244.433 40.3182 245.468 40.3214C245.849 40.3221 246.229 40.3219 246.61 40.3207C247.128 40.3192 247.646 40.3214 248.164 40.3238C248.6 40.3241 248.6 40.3241 249.044 40.3244C249.727 40.3933 249.727 40.3933 250.273 40.9401C250.307 41.6578 250.307 41.6578 250.273 42.3071C250.003 42.3071 249.733 42.3071 249.455 42.3071C249.455 41.7658 249.455 41.2244 249.455 40.6667C249.185 40.7569 248.915 40.8471 248.636 40.9401C248.124 40.9618 247.611 40.9667 247.099 40.9626C246.779 40.9606 246.459 40.9587 246.129 40.9567C245.777 40.9532 245.426 40.9497 245.064 40.946C244.69 40.9432 244.316 40.9406 243.943 40.9381C242.928 40.9308 241.913 40.9219 240.899 40.9126C239.838 40.9032 238.778 40.8954 237.718 40.8874C235.71 40.8721 233.702 40.8553 231.693 40.838C229.408 40.8184 227.121 40.8004 224.835 40.7825C220.133 40.7456 215.43 40.7068 210.727 40.6667C210.727 40.8471 210.727 41.0276 210.727 41.2135C210.997 41.3037 211.267 41.3939 211.546 41.4869C211.366 41.4869 211.186 41.4869 211 41.4869C210.91 41.938 210.82 42.3891 210.727 42.8539C223.507 42.8539 236.287 42.8539 249.455 42.8539C249.455 42.9442 249.455 43.0344 249.455 43.1273C244.384 43.1465 239.313 43.161 234.242 43.1698C231.888 43.1741 229.533 43.1798 227.179 43.1892C225.127 43.1974 223.076 43.2027 221.024 43.2045C219.937 43.2056 218.851 43.2081 217.764 43.2141C216.741 43.2196 215.719 43.2213 214.697 43.2201C214.321 43.2203 213.945 43.222 213.57 43.2251C213.058 43.2292 212.546 43.2277 212.034 43.226C211.603 43.2271 211.603 43.2271 211.164 43.2283C210.455 43.1273 210.455 43.1273 209.952 42.7549C209.507 42.1242 209.54 41.694 209.636 40.9401C210.367 40.2075 210.723 40.3245 211.745 40.3238Z" fill="#DAD7EB"/>
<path d="M212.251 72.0757C212.566 72.0764 212.88 72.077 213.204 72.0776C213.736 72.0776 213.736 72.0776 214.279 72.0776C214.67 72.079 215.06 72.0805 215.45 72.0819C215.847 72.0824 216.244 72.0828 216.641 72.0831C217.688 72.0841 218.735 72.0868 219.782 72.0898C220.85 72.0926 221.917 72.0939 222.985 72.0953C225.081 72.0982 227.177 72.1029 229.273 72.1086C229.183 72.4695 229.093 72.8304 229 73.2023C223.24 73.2023 217.48 73.2023 211.546 73.2023C211.456 72.9316 211.366 72.6609 211.273 72.382C211.546 72.1086 211.546 72.1086 212.251 72.0757Z" fill="#E6E7E7"/>
<path d="M132.182 50.7828C132.528 50.8716 132.874 50.9604 133.231 51.0519C134.659 51.3688 136.025 51.4108 137.483 51.3979C137.722 51.4001 137.961 51.4022 138.208 51.4043C139.892 51.3994 141.453 51.1703 143.091 50.7828C141.872 52.1122 140.77 52.9781 138.934 53.0886C138.513 53.0933 138.092 53.0935 137.671 53.0897C137.462 53.0951 137.254 53.1006 137.039 53.1062C135.483 53.1049 134.3 52.7426 133 51.8764C132.455 51.2612 132.455 51.2612 132.182 50.7828Z" fill="#FD776C"/>
<path d="M266.091 26.4494C266.773 26.8766 266.773 26.8766 267.182 27.5431C267.182 28.5886 267.142 29.1989 266.432 29.9867C265.676 30.3447 265.28 30.4426 264.455 30.2772C263.671 29.5554 263.393 29.1163 263.244 28.0557C263.364 27.2697 263.364 27.2697 263.653 26.757C264.496 26.2667 265.14 26.3323 266.091 26.4494Z" fill="#8367F2"/>
<path d="M259 26.4494C259.671 26.8754 259.789 27.1826 260.04 27.9361C260.098 28.7331 259.989 29.075 259.546 29.7303C258.779 30.1144 258.212 30.0718 257.364 30.0038C256.716 29.7133 256.716 29.7133 256.273 29.1835C256.155 28.2417 256.1 27.5854 256.563 26.7399C257.396 26.2816 258.07 26.3496 259 26.4494Z" fill="#8669F6"/>
<path d="M129.455 35.7453C130.784 35.9846 130.784 35.9846 131.091 36.2921C131.125 36.7354 131.139 37.1804 131.142 37.625C131.146 37.8668 131.15 38.1085 131.154 38.3576C131.091 39.0262 131.091 39.0262 130.546 39.8464C129.898 39.761 129.898 39.761 129.182 39.573C128.507 38.5587 128.531 38.039 128.636 36.839C129.046 36.1725 129.046 36.1725 129.455 35.7453Z" fill="#313455"/>
<path d="M142.818 35.7453C144.148 35.9846 144.148 35.9846 144.455 36.2921C144.489 36.7354 144.502 37.1804 144.506 37.625C144.51 37.8668 144.513 38.1085 144.517 38.3576C144.455 39.0262 144.455 39.0262 143.909 39.8464C143.261 39.7781 143.261 39.7781 142.545 39.573C141.888 38.7259 141.892 37.8812 142 36.839C142.409 36.1896 142.409 36.1896 142.818 35.7453Z" fill="#403D5A"/>
<path d="M63.1819 160.966C63.2719 160.966 63.3619 160.966 63.4546 160.966C63.4813 161.155 63.5081 161.343 63.5356 161.538C63.8182 163.318 64.2757 164.828 65.091 166.434C64.5455 166.708 64.5455 166.708 63.7103 166.486C62.9092 166.161 62.9092 166.161 62.6364 165.614C62.507 163.963 62.6403 162.527 63.1819 160.966Z" fill="#D0D0DF"/>
<path d="M156.727 30.824C157.29 31.3024 157.29 31.3024 157.818 31.9176C157.7 32.7051 157.403 33.4315 157.119 34.1732C157.046 34.3664 156.972 34.5595 156.897 34.7585C156.841 34.9037 156.785 35.0489 156.727 35.1985C156.187 35.0181 155.647 34.8376 155.091 34.6517C155.271 34.5615 155.451 34.4712 155.636 34.3783C155.804 33.7631 155.804 33.7631 155.909 33.0454C156.065 32.0871 156.177 31.6522 156.727 30.824Z" fill="#F7A693"/>
<path d="M144.045 28.5854C144.256 28.5872 144.467 28.589 144.685 28.5908C145.273 28.6367 145.273 28.6367 146.091 28.9101C146.091 29.0906 146.091 29.271 146.091 29.4569C146.271 29.4569 146.451 29.4569 146.636 29.4569C146.636 29.7276 146.636 29.9983 146.636 30.2771C146.501 30.232 146.366 30.1869 146.227 30.1404C144.713 29.8368 143.229 29.976 141.727 30.2771C141.813 29.7645 141.813 29.7645 142 29.1835C142.858 28.6101 143.067 28.5675 144.045 28.5854Z" fill="#FC766C"/>
<path d="M128.892 28.5854C129.639 28.5924 130.093 28.6677 130.818 28.9101C130.908 29.3612 130.998 29.8124 131.091 30.2772C130.821 30.1869 130.551 30.0967 130.273 30.0037C129.135 29.9615 128.107 30.0082 127 30.2772C127.26 28.976 127.489 28.6524 128.892 28.5854Z" fill="#FD746A"/>
<path d="M142.818 36.2921C143.358 36.2921 143.898 36.2921 144.455 36.2921C144.462 36.7364 144.467 37.1807 144.472 37.625C144.475 37.8724 144.478 38.1198 144.481 38.3747C144.455 39.0262 144.455 39.0262 144.182 39.573C143.822 39.4828 143.462 39.3926 143.091 39.2996C143.091 38.206 143.091 38.206 143.364 37.9326C143.094 37.6619 142.824 37.3912 142.546 37.1124C142.636 36.8417 142.726 36.571 142.818 36.2921Z" fill="#2E3253"/>
<path d="M138.727 42.5805C138.907 42.5805 139.087 42.5805 139.273 42.5805C139.938 44.1361 140.234 45.2612 140.091 46.9551C139.911 47.2257 139.731 47.4964 139.546 47.7753C138.83 47.8265 138.83 47.8265 138.182 47.7753C138.182 47.5948 138.182 47.4144 138.182 47.2285C138.632 47.1382 139.082 47.048 139.546 46.9551C139.486 46.7538 139.427 46.5526 139.367 46.3452C139.291 46.0784 139.215 45.8116 139.136 45.5368C139.023 45.1418 139.023 45.1418 138.906 44.739C138.736 43.9876 138.694 43.3472 138.727 42.5805Z" fill="#FC7F74"/>
<path d="M113.909 31.6442C114.269 31.6442 114.629 31.6442 115 31.6442C115.09 32.4562 115.18 33.2682 115.273 34.1049C115.093 34.1049 114.913 34.1049 114.727 34.1049C114.727 33.8342 114.727 33.5635 114.727 33.2846C114.277 33.4651 113.827 33.6455 113.364 33.8315C113.274 33.3803 113.184 32.9292 113.091 32.4644C113.361 32.3742 113.631 32.284 113.909 32.191C113.909 32.0106 113.909 31.8301 113.909 31.6442Z" fill="#ECA291"/>
<path d="M62.3637 25.3558C62.5437 25.446 62.7237 25.5363 62.9091 25.6292C62.9091 25.8999 62.9091 26.1706 62.9091 26.4494C63.2691 26.4494 63.6291 26.4494 64 26.4494C63.91 26.9006 63.82 27.3517 63.7273 27.8165C63.3673 27.9067 63.0073 27.9969 62.6364 28.0899C62.5375 27.7374 62.4414 27.3841 62.3466 27.0304C62.2659 26.7354 62.2659 26.7354 62.1836 26.4345C62.0909 25.9026 62.0909 25.9026 62.3637 25.3558Z" fill="#E4E5E8"/>
<path d="M138.727 66.367C138.637 66.5475 138.547 66.7279 138.455 66.9139C137.015 66.9139 135.575 66.9139 134.091 66.9139C134.091 66.7334 134.091 66.553 134.091 66.367C134.608 66.3133 135.125 66.2627 135.642 66.2132C136.074 66.1704 136.074 66.1704 136.515 66.1267C137.313 66.0956 137.956 66.1733 138.727 66.367Z" fill="#FDA991"/>
<path d="M148.546 60.0787C149.176 60.1689 149.806 60.2591 150.455 60.3521C150.275 60.5325 150.095 60.713 149.909 60.8989C150.179 61.3049 150.179 61.3049 150.455 61.7191C150.185 62.1251 150.185 62.1251 149.909 62.5393C149.639 62.4491 149.369 62.3589 149.091 62.2659C148.892 61.7608 148.892 61.7608 148.767 61.1552C148.724 60.9547 148.681 60.7541 148.636 60.5475C148.606 60.3928 148.576 60.2381 148.546 60.0787Z" fill="#8C41F8"/>
<path d="M115.818 193.502C115.908 193.502 115.998 193.502 116.091 193.502C116.091 194.945 116.091 196.389 116.091 197.876C116.271 197.967 116.451 198.057 116.636 198.15C116.546 198.24 116.456 198.33 116.364 198.423C116.724 198.604 117.084 198.784 117.455 198.97C116.735 198.97 116.015 198.97 115.273 198.97C115.363 198.699 115.453 198.429 115.546 198.15C115.585 197.785 115.613 197.419 115.632 197.053C115.643 196.846 115.655 196.639 115.666 196.426C115.677 196.211 115.688 195.996 115.699 195.775C115.711 195.557 115.723 195.339 115.735 195.114C115.764 194.577 115.791 194.039 115.818 193.502Z" fill="#733BD6"/>
<path d="M230.364 72.382C230.634 72.4722 230.904 72.5625 231.182 72.6554C231.182 73.1066 231.182 73.5577 231.182 74.0225C230.642 74.2931 230.642 74.2931 230.091 74.5693C230.091 74.3888 230.091 74.2084 230.091 74.0225C229.911 74.0225 229.731 74.0225 229.546 74.0225C230.057 72.6896 230.057 72.6896 230.364 72.382Z" fill="#DDDCEB"/>
<path d="M156.182 32.191C156.362 32.2812 156.542 32.3715 156.727 32.4644C156.898 33.0283 156.898 33.0283 157 33.5581C156.82 33.5581 156.64 33.5581 156.455 33.5581C156.365 33.9189 156.275 34.2798 156.182 34.6517C155.822 34.6517 155.462 34.6517 155.091 34.6517C155.271 34.5615 155.451 34.4712 155.636 34.3783C155.738 33.742 155.829 33.1039 155.909 32.4644C155.999 32.3742 156.089 32.284 156.182 32.191Z" fill="#DE9688"/>
<path d="M64.0001 19.6142C64.2941 20.1194 64.2941 20.1194 64.5455 20.7079C64.2046 21.3743 64.2046 21.3743 63.7273 22.0749C63.5369 22.527 63.3523 22.9819 63.1819 23.4419C62.808 22.433 63.0182 21.8811 63.4376 20.9129C63.5413 20.669 63.645 20.4251 63.7518 20.1739C63.8337 19.9892 63.9157 19.8045 64.0001 19.6142Z" fill="#D7D3EC"/>
<path d="M161.364 190.494C161.087 190.599 161.087 190.599 160.805 190.705C160.441 190.846 160.441 190.846 160.068 190.99C159.828 191.082 159.587 191.174 159.34 191.269C158.655 191.579 158.126 191.934 157.546 192.408C157.636 191.957 157.726 191.506 157.818 191.041C158.203 190.895 158.59 190.754 158.977 190.614C159.193 190.535 159.408 190.455 159.629 190.374C160.325 190.209 160.696 190.263 161.364 190.494Z" fill="#B6B8CA"/>
<path d="M134.636 177.644C134.705 179.695 134.705 179.695 134.091 180.925C134.091 180.023 134.091 179.121 134.091 178.191C133.551 178.191 133.011 178.191 132.455 178.191C132.455 178.101 132.455 178.011 132.455 177.918C134.023 177.644 134.023 177.644 134.636 177.644Z" fill="#454075"/>
<path d="M149.091 26.176C150.056 27.1854 150.07 28.1156 150.182 29.4569C149.338 28.4976 148.889 27.682 148.546 26.4494C148.726 26.3592 148.906 26.269 149.091 26.176Z" fill="#FC8076"/>
<path d="M71.9092 14.1461C72.2692 14.1461 72.6292 14.1461 73.0001 14.1461C72.9148 14.6758 72.9148 14.6758 72.7273 15.2397C72.4573 15.3299 72.1873 15.4202 71.9092 15.5131C71.7292 15.6936 71.5492 15.874 71.3637 16.0599C71.3296 15.4106 71.3296 15.4106 71.3637 14.6929C71.5437 14.5124 71.7237 14.332 71.9092 14.1461Z" fill="#DBD9EA"/>
<path d="M195.727 176.277C194.794 177.138 193.97 177.251 192.727 177.371C194.596 175.899 194.596 175.899 195.727 176.277Z" fill="#C9CBDA"/>
<path d="M154.273 33.0112C154.633 33.1917 154.993 33.3721 155.364 33.5581C155.364 33.3776 155.364 33.1972 155.364 33.0112C155.544 33.0112 155.724 33.0112 155.909 33.0112C155.819 33.4624 155.729 33.9135 155.636 34.3783C155.125 34.2928 155.125 34.2928 154.545 34.1049C154.365 33.8342 154.185 33.5635 154 33.2846C154.09 33.1944 154.18 33.1042 154.273 33.0112Z" fill="#3D3656"/>
<path d="M119.909 32.4644C119.586 33.3872 119.288 34.0084 118.545 34.6517C118.273 33.8315 118.273 33.8315 118.545 33.0112C119.364 32.4644 119.364 32.4644 119.909 32.4644Z" fill="#393452"/>
<path d="M207.455 27.5431C207.545 27.7235 207.635 27.904 207.727 28.0899C207.997 28.1801 208.267 28.2703 208.545 28.3633C208.545 28.8144 208.545 29.2655 208.545 29.7303C208.275 29.6401 208.005 29.5499 207.727 29.4569C207.637 28.8254 207.547 28.1938 207.455 27.5431Z" fill="#BBC0C6"/>
<path d="M71.3636 26.176C71.6336 26.3114 71.6336 26.3114 71.9091 26.4494C71.9091 26.6299 71.9091 26.8103 71.9091 26.9963C72.0891 26.9963 72.2691 26.9963 72.4546 26.9963C72.8977 27.5431 72.8977 27.5431 73.2727 28.0899C72.625 28.1412 72.625 28.1412 71.9091 28.0899C71.3636 27.2697 71.3636 27.2697 71.3636 26.176Z" fill="#DCDAE9"/>
<path d="M120.727 198.15C121.267 198.15 121.807 198.15 122.364 198.15C122.274 198.42 122.184 198.691 122.091 198.97C121.371 198.97 120.651 198.97 119.909 198.97C120.179 198.88 120.449 198.79 120.727 198.697C120.727 198.516 120.727 198.336 120.727 198.15Z" fill="#813DF0"/>
<path d="M149.909 27.2697C150.497 27.9865 150.837 28.5394 151 29.4569C150.73 29.4569 150.46 29.4569 150.182 29.4569C149.792 28.8132 149.613 28.5054 149.739 27.7481C149.795 27.5902 149.851 27.4323 149.909 27.2697Z" fill="#DE716B"/>
<path d="M72.7274 24.5356C72.8174 24.716 72.9074 24.8965 73.0001 25.0824C72.9101 25.2628 72.8201 25.4433 72.7274 25.6292C72.9074 25.6292 73.0874 25.6292 73.2728 25.6292C73.2728 25.8999 73.2728 26.1706 73.2728 26.4494C72.4628 26.3141 72.4628 26.3141 71.6365 26.176C71.9506 25.5013 72.195 25.0693 72.7274 24.5356Z" fill="#D9D6EB"/>
<path d="M120.455 180.925C119.193 181.745 119.193 181.745 118.273 181.745C118.363 181.475 118.453 181.204 118.546 180.925C119.4 180.64 119.634 180.67 120.455 180.925Z" fill="#7E3CE7"/>
<path d="M259.546 29.1835C259.726 29.1835 259.906 29.1835 260.091 29.1835C259.614 30.243 259.614 30.243 259 30.5506C258.028 30.4651 258.028 30.4651 257.091 30.2772C257.001 30.0967 256.911 29.9163 256.818 29.7303C257.718 29.7303 258.618 29.7303 259.546 29.7303C259.546 29.5499 259.546 29.3694 259.546 29.1835Z" fill="#443F83"/>
<path d="M187 180.378C186.91 180.649 186.82 180.92 186.727 181.199C186.097 181.108 185.467 181.018 184.818 180.925C185.598 180.143 185.947 180.026 187 180.378Z" fill="#C6C6D7"/>
<path d="M148.546 60.6255C148.995 61.4366 149.212 62.1719 149.364 63.0861C149.094 63.2215 149.094 63.2215 148.818 63.3595C148.638 63.1791 148.458 62.9986 148.273 62.8127C148.363 62.5421 148.453 62.2714 148.546 61.9925C148.556 61.5369 148.558 61.081 148.546 60.6255Z" fill="#F09D9E"/>
<path d="M128.909 36.2921C129.609 37.3448 129.409 37.8193 129.182 39.0262C129.002 38.936 128.822 38.8458 128.636 38.7528C128.602 36.9073 128.602 36.9073 128.909 36.2921Z" fill="#594B61"/>
<path d="M148.546 60.0787C149.176 60.1689 149.806 60.2591 150.455 60.3521C150.08 60.7622 150.08 60.7622 149.636 61.1723C149.456 61.1723 149.276 61.1723 149.091 61.1723C149.001 61.3527 148.911 61.5332 148.818 61.7191C148.728 61.1778 148.638 60.6364 148.546 60.0787Z" fill="#9852F6"/>
<path d="M232.545 27.5431C232.635 27.5431 232.725 27.5431 232.818 27.5431C232.886 28.1753 232.886 28.1753 232.818 28.9101C232.273 29.4057 232.273 29.4057 231.727 29.7303C231.727 28.7501 232.006 28.3428 232.545 27.5431Z" fill="#B3B7BF"/>
</svg>
